<mxfile host="Electron" agent="Mozilla/5.0 (Windows NT 10.0; Win64; x64) AppleWebKit/537.36 (KHTML, like Gecko) draw.io/26.0.16 Chrome/132.0.6834.196 Electron/34.2.0 Safari/537.36" version="26.0.16">
  <diagram name="Page-1" id="4a9Si8Kbahee7dGonXB0">
    <mxGraphModel dx="1854" dy="746" grid="1" gridSize="10" guides="1" tooltips="1" connect="1" arrows="1" fold="1" page="1" pageScale="1" pageWidth="850" pageHeight="1100" math="0" shadow="0">
      <root>
        <mxCell id="0" />
        <mxCell id="1" parent="0" />
        <mxCell id="47vPxkn8_tH3v08N_-s_-1" value="User Event" style="edgeStyle=orthogonalEdgeStyle;rounded=0;orthogonalLoop=1;jettySize=auto;html=1;flowAnimation=1;" parent="1" source="47vPxkn8_tH3v08N_-s_-4" target="47vPxkn8_tH3v08N_-s_-6" edge="1">
          <mxGeometry relative="1" as="geometry" />
        </mxCell>
        <mxCell id="47vPxkn8_tH3v08N_-s_-2" value="202" style="edgeStyle=orthogonalEdgeStyle;rounded=0;orthogonalLoop=1;jettySize=auto;html=1;entryX=1;entryY=0.75;entryDx=0;entryDy=0;exitX=-0.018;exitY=0.759;exitDx=0;exitDy=0;exitPerimeter=0;dashed=1;flowAnimation=1;" parent="1" source="47vPxkn8_tH3v08N_-s_-4" target="47vPxkn8_tH3v08N_-s_-11" edge="1">
          <mxGeometry relative="1" as="geometry" />
        </mxCell>
        <mxCell id="47vPxkn8_tH3v08N_-s_-3" style="edgeStyle=orthogonalEdgeStyle;rounded=0;orthogonalLoop=1;jettySize=auto;html=1;" parent="1" source="47vPxkn8_tH3v08N_-s_-4" target="47vPxkn8_tH3v08N_-s_-33" edge="1">
          <mxGeometry relative="1" as="geometry" />
        </mxCell>
        <mxCell id="47vPxkn8_tH3v08N_-s_-4" value="&lt;div&gt;HTTP&lt;/div&gt;REST API" style="verticalLabelPosition=middle;verticalAlign=middle;html=1;shape=mxgraph.basic.rect;fillColor2=none;strokeWidth=1;size=20;indent=5;labelPosition=center;align=center;" parent="1" vertex="1">
          <mxGeometry x="-320" y="260" width="120" height="60" as="geometry" />
        </mxCell>
        <mxCell id="47vPxkn8_tH3v08N_-s_-5" style="edgeStyle=orthogonalEdgeStyle;rounded=0;orthogonalLoop=1;jettySize=auto;html=1;entryX=0;entryY=0.5;entryDx=0;entryDy=0;flowAnimation=1;" parent="1" source="47vPxkn8_tH3v08N_-s_-6" target="47vPxkn8_tH3v08N_-s_-9" edge="1">
          <mxGeometry relative="1" as="geometry" />
        </mxCell>
        <mxCell id="47vPxkn8_tH3v08N_-s_-6" value="Queue&lt;div&gt;P2P Channel&lt;/div&gt;" style="strokeWidth=1;outlineConnect=0;dashed=0;align=center;html=1;fontSize=8;shape=mxgraph.eip.messageChannel;verticalLabelPosition=bottom;labelBackgroundColor=#ffffff;verticalAlign=top;" parent="1" vertex="1">
          <mxGeometry x="-110" y="280" width="80" height="20" as="geometry" />
        </mxCell>
        <mxCell id="47vPxkn8_tH3v08N_-s_-7" value="JPA" style="edgeStyle=orthogonalEdgeStyle;rounded=0;orthogonalLoop=1;jettySize=auto;html=1;flowAnimation=1;" parent="1" source="47vPxkn8_tH3v08N_-s_-9" target="47vPxkn8_tH3v08N_-s_-14" edge="1">
          <mxGeometry relative="1" as="geometry" />
        </mxCell>
        <mxCell id="47vPxkn8_tH3v08N_-s_-8" style="edgeStyle=orthogonalEdgeStyle;rounded=0;orthogonalLoop=1;jettySize=auto;html=1;" parent="1" source="47vPxkn8_tH3v08N_-s_-9" target="47vPxkn8_tH3v08N_-s_-34" edge="1">
          <mxGeometry relative="1" as="geometry" />
        </mxCell>
        <mxCell id="47vPxkn8_tH3v08N_-s_-9" value="User Event&lt;div&gt;Consumer&lt;/div&gt;" style="shape=process;whiteSpace=wrap;html=1;backgroundOutline=1;" parent="1" vertex="1">
          <mxGeometry x="40" y="270" width="120" height="40" as="geometry" />
        </mxCell>
        <mxCell id="47vPxkn8_tH3v08N_-s_-10" value="POST&lt;div&gt;/message&lt;/div&gt;" style="edgeStyle=orthogonalEdgeStyle;rounded=0;orthogonalLoop=1;jettySize=auto;html=1;exitX=1;exitY=0.25;exitDx=0;exitDy=0;entryX=0.009;entryY=0.241;entryDx=0;entryDy=0;entryPerimeter=0;flowAnimation=1;" parent="1" source="47vPxkn8_tH3v08N_-s_-11" target="47vPxkn8_tH3v08N_-s_-4" edge="1">
          <mxGeometry relative="1" as="geometry" />
        </mxCell>
        <mxCell id="47vPxkn8_tH3v08N_-s_-11" value="Web Client" style="shape=process;whiteSpace=wrap;html=1;backgroundOutline=1;" parent="1" vertex="1">
          <mxGeometry x="-560" y="260" width="120" height="60" as="geometry" />
        </mxCell>
        <mxCell id="47vPxkn8_tH3v08N_-s_-12" value="Protocol Transformation" style="rounded=1;whiteSpace=wrap;html=1;fillColor=#d5e8d4;strokeColor=#82b366;" parent="1" vertex="1">
          <mxGeometry x="-300" y="340" width="240" height="20" as="geometry" />
        </mxCell>
        <mxCell id="47vPxkn8_tH3v08N_-s_-13" value="Content-based Routing (Resource -&amp;gt; Queue)" style="rounded=1;whiteSpace=wrap;html=1;fillColor=#fff2cc;strokeColor=#d6b656;" parent="1" vertex="1">
          <mxGeometry x="-500" y="160" width="390" height="20" as="geometry" />
        </mxCell>
        <mxCell id="47vPxkn8_tH3v08N_-s_-14" value="&lt;div&gt;H2&lt;/div&gt;&lt;div&gt;PostgreSQL&lt;/div&gt;Database" style="shape=cylinder3;whiteSpace=wrap;html=1;boundedLbl=1;backgroundOutline=1;size=15;" parent="1" vertex="1">
          <mxGeometry x="260" y="250" width="80" height="80" as="geometry" />
        </mxCell>
        <mxCell id="47vPxkn8_tH3v08N_-s_-15" value="Protocol Transformation" style="rounded=1;whiteSpace=wrap;html=1;fillColor=#d5e8d4;strokeColor=#82b366;" parent="1" vertex="1">
          <mxGeometry x="-60" y="220" width="340" height="20" as="geometry" />
        </mxCell>
        <mxCell id="47vPxkn8_tH3v08N_-s_-16" value="Event" style="edgeStyle=orthogonalEdgeStyle;rounded=0;orthogonalLoop=1;jettySize=auto;html=1;flowAnimation=1;" parent="1" source="47vPxkn8_tH3v08N_-s_-18" target="47vPxkn8_tH3v08N_-s_-19" edge="1">
          <mxGeometry relative="1" as="geometry" />
        </mxCell>
        <mxCell id="47vPxkn8_tH3v08N_-s_-17" value="202" style="edgeStyle=orthogonalEdgeStyle;rounded=0;orthogonalLoop=1;jettySize=auto;html=1;entryX=1;entryY=0.75;entryDx=0;entryDy=0;exitX=-0.018;exitY=0.759;exitDx=0;exitDy=0;exitPerimeter=0;dashed=1;flowAnimation=1;" parent="1" source="47vPxkn8_tH3v08N_-s_-18" target="47vPxkn8_tH3v08N_-s_-24" edge="1">
          <mxGeometry relative="1" as="geometry" />
        </mxCell>
        <mxCell id="47vPxkn8_tH3v08N_-s_-18" value="&lt;div&gt;HTTP&lt;/div&gt;REST API" style="verticalLabelPosition=middle;verticalAlign=middle;html=1;shape=mxgraph.basic.rect;fillColor2=none;strokeWidth=1;size=20;indent=5;labelPosition=center;align=center;" parent="1" vertex="1">
          <mxGeometry x="-320" y="540" width="120" height="60" as="geometry" />
        </mxCell>
        <mxCell id="47vPxkn8_tH3v08N_-s_-19" value="Event Topic" style="strokeWidth=1;outlineConnect=0;dashed=0;align=center;html=1;fontSize=8;shape=mxgraph.eip.messageChannel;verticalLabelPosition=bottom;labelBackgroundColor=#ffffff;verticalAlign=top;" parent="1" vertex="1">
          <mxGeometry x="-110" y="560" width="80" height="20" as="geometry" />
        </mxCell>
        <mxCell id="47vPxkn8_tH3v08N_-s_-20" value="JPA" style="edgeStyle=orthogonalEdgeStyle;rounded=0;orthogonalLoop=1;jettySize=auto;html=1;flowAnimation=1;" parent="1" source="47vPxkn8_tH3v08N_-s_-22" target="47vPxkn8_tH3v08N_-s_-26" edge="1">
          <mxGeometry relative="1" as="geometry" />
        </mxCell>
        <mxCell id="47vPxkn8_tH3v08N_-s_-21" style="edgeStyle=orthogonalEdgeStyle;rounded=0;orthogonalLoop=1;jettySize=auto;html=1;" parent="1" source="47vPxkn8_tH3v08N_-s_-22" target="47vPxkn8_tH3v08N_-s_-37" edge="1">
          <mxGeometry relative="1" as="geometry" />
        </mxCell>
        <mxCell id="47vPxkn8_tH3v08N_-s_-22" value="DB Event&lt;div&gt;Subscriber&lt;/div&gt;" style="shape=process;whiteSpace=wrap;html=1;backgroundOutline=1;" parent="1" vertex="1">
          <mxGeometry x="80" y="550" width="120" height="40" as="geometry" />
        </mxCell>
        <mxCell id="47vPxkn8_tH3v08N_-s_-23" value="POST&lt;div&gt;/event&lt;/div&gt;" style="edgeStyle=orthogonalEdgeStyle;rounded=0;orthogonalLoop=1;jettySize=auto;html=1;exitX=1;exitY=0.25;exitDx=0;exitDy=0;entryX=0.009;entryY=0.241;entryDx=0;entryDy=0;entryPerimeter=0;flowAnimation=1;" parent="1" source="47vPxkn8_tH3v08N_-s_-24" target="47vPxkn8_tH3v08N_-s_-18" edge="1">
          <mxGeometry relative="1" as="geometry" />
        </mxCell>
        <mxCell id="47vPxkn8_tH3v08N_-s_-24" value="Web Client" style="shape=process;whiteSpace=wrap;html=1;backgroundOutline=1;" parent="1" vertex="1">
          <mxGeometry x="-560" y="540" width="120" height="60" as="geometry" />
        </mxCell>
        <mxCell id="47vPxkn8_tH3v08N_-s_-25" value="Protocol Transformation" style="rounded=1;whiteSpace=wrap;html=1;fillColor=#d5e8d4;strokeColor=#82b366;" parent="1" vertex="1">
          <mxGeometry x="-300" y="630" width="240" height="20" as="geometry" />
        </mxCell>
        <mxCell id="47vPxkn8_tH3v08N_-s_-26" value="&lt;div&gt;H2&lt;/div&gt;&lt;div&gt;PostgreSQL&lt;/div&gt;Database" style="shape=cylinder3;whiteSpace=wrap;html=1;boundedLbl=1;backgroundOutline=1;size=15;" parent="1" vertex="1">
          <mxGeometry x="300" y="530" width="80" height="80" as="geometry" />
        </mxCell>
        <mxCell id="47vPxkn8_tH3v08N_-s_-27" value="Protocol Transformation" style="rounded=1;whiteSpace=wrap;html=1;fillColor=#d5e8d4;strokeColor=#82b366;" parent="1" vertex="1">
          <mxGeometry x="-60" y="500" width="340" height="20" as="geometry" />
        </mxCell>
        <mxCell id="47vPxkn8_tH3v08N_-s_-28" value="PUB-SUB (Topic -&amp;gt; Multiple Subscribers)" style="rounded=1;whiteSpace=wrap;html=1;fillColor=#fff2cc;strokeColor=#d6b656;" parent="1" vertex="1">
          <mxGeometry x="-60" y="480" width="340" height="20" as="geometry" />
        </mxCell>
        <mxCell id="47vPxkn8_tH3v08N_-s_-29" style="edgeStyle=orthogonalEdgeStyle;rounded=0;orthogonalLoop=1;jettySize=auto;html=1;flowAnimation=1;" parent="1" source="47vPxkn8_tH3v08N_-s_-31" target="47vPxkn8_tH3v08N_-s_-32" edge="1">
          <mxGeometry relative="1" as="geometry" />
        </mxCell>
        <mxCell id="47vPxkn8_tH3v08N_-s_-57" style="edgeStyle=orthogonalEdgeStyle;rounded=0;orthogonalLoop=1;jettySize=auto;html=1;" parent="1" source="47vPxkn8_tH3v08N_-s_-31" target="47vPxkn8_tH3v08N_-s_-56" edge="1">
          <mxGeometry relative="1" as="geometry" />
        </mxCell>
        <mxCell id="47vPxkn8_tH3v08N_-s_-31" value="File Event&lt;div&gt;Subscriber&lt;/div&gt;" style="shape=process;whiteSpace=wrap;html=1;backgroundOutline=1;" parent="1" vertex="1">
          <mxGeometry x="80" y="711" width="120" height="40" as="geometry" />
        </mxCell>
        <mxCell id="47vPxkn8_tH3v08N_-s_-32" value="File" style="verticalLabelPosition=middle;html=1;verticalAlign=middle;strokeWidth=1;align=center;outlineConnect=0;dashed=0;outlineConnect=0;shape=mxgraph.aws3d.file;aspect=fixed;strokeColor=#292929;labelPosition=center;" parent="1" vertex="1">
          <mxGeometry x="310" y="695.7" width="30.8" height="70.6" as="geometry" />
        </mxCell>
        <mxCell id="47vPxkn8_tH3v08N_-s_-33" value="Logger" style="ellipse;whiteSpace=wrap;html=1;" parent="1" vertex="1">
          <mxGeometry x="-300" y="200" width="80" height="40" as="geometry" />
        </mxCell>
        <mxCell id="47vPxkn8_tH3v08N_-s_-34" value="Logger" style="ellipse;whiteSpace=wrap;html=1;" parent="1" vertex="1">
          <mxGeometry x="60" y="330" width="80" height="40" as="geometry" />
        </mxCell>
        <mxCell id="47vPxkn8_tH3v08N_-s_-35" style="edgeStyle=orthogonalEdgeStyle;rounded=0;orthogonalLoop=1;jettySize=auto;html=1;" parent="1" source="47vPxkn8_tH3v08N_-s_-18" target="47vPxkn8_tH3v08N_-s_-36" edge="1">
          <mxGeometry relative="1" as="geometry" />
        </mxCell>
        <mxCell id="47vPxkn8_tH3v08N_-s_-36" value="Logger" style="ellipse;whiteSpace=wrap;html=1;" parent="1" vertex="1">
          <mxGeometry x="-300" y="480" width="80" height="40" as="geometry" />
        </mxCell>
        <mxCell id="47vPxkn8_tH3v08N_-s_-37" value="Logger" style="ellipse;whiteSpace=wrap;html=1;" parent="1" vertex="1">
          <mxGeometry x="100" y="630" width="80" height="40" as="geometry" />
        </mxCell>
        <mxCell id="47vPxkn8_tH3v08N_-s_-38" value="Content-based Routing (Resource -&amp;gt; Topic)" style="rounded=1;whiteSpace=wrap;html=1;fillColor=#fff2cc;strokeColor=#d6b656;" parent="1" vertex="1">
          <mxGeometry x="-500" y="440" width="390" height="20" as="geometry" />
        </mxCell>
        <mxCell id="47vPxkn8_tH3v08N_-s_-39" value="Point-to-Point Channel (Queue -&amp;gt; Single Consumer)" style="rounded=1;whiteSpace=wrap;html=1;fillColor=#fff2cc;strokeColor=#d6b656;" parent="1" vertex="1">
          <mxGeometry x="-60" y="200" width="340" height="20" as="geometry" />
        </mxCell>
        <mxCell id="47vPxkn8_tH3v08N_-s_-40" value="Transform &#xa;to File (XML)" style="shape=image;verticalLabelPosition=bottom;labelBackgroundColor=default;verticalAlign=top;aspect=fixed;imageAspect=0;image=https://www.enterpriseintegrationpatterns.com/img/MessageTranslatorIcon.gif;" parent="1" vertex="1">
          <mxGeometry x="224" y="761" width="56" height="35.16" as="geometry" />
        </mxCell>
        <mxCell id="47vPxkn8_tH3v08N_-s_-41" value="Transform&#xa;to JDBC" style="shape=image;verticalLabelPosition=bottom;labelBackgroundColor=default;verticalAlign=top;aspect=fixed;imageAspect=0;image=https://www.enterpriseintegrationpatterns.com/img/MessageTranslatorIcon.gif;" parent="1" vertex="1">
          <mxGeometry x="184" y="324.84" width="56" height="35.16" as="geometry" />
        </mxCell>
        <mxCell id="47vPxkn8_tH3v08N_-s_-42" value="Transform&#xa;to JDBC" style="shape=image;verticalLabelPosition=bottom;labelBackgroundColor=default;verticalAlign=top;aspect=fixed;imageAspect=0;image=https://www.enterpriseintegrationpatterns.com/img/MessageTranslatorIcon.gif;" parent="1" vertex="1">
          <mxGeometry x="224" y="600" width="56" height="35.16" as="geometry" />
        </mxCell>
        <mxCell id="47vPxkn8_tH3v08N_-s_-43" value="" style="edgeStyle=orthogonalEdgeStyle;rounded=0;orthogonalLoop=1;jettySize=auto;html=1;flowAnimation=1;" parent="1" source="47vPxkn8_tH3v08N_-s_-19" target="47vPxkn8_tH3v08N_-s_-45" edge="1">
          <mxGeometry relative="1" as="geometry">
            <Array as="points">
              <mxPoint x="20" y="570" />
            </Array>
            <mxPoint x="-30" y="570" as="sourcePoint" />
            <mxPoint x="40" y="700" as="targetPoint" />
          </mxGeometry>
        </mxCell>
        <mxCell id="47vPxkn8_tH3v08N_-s_-44" style="edgeStyle=orthogonalEdgeStyle;rounded=0;orthogonalLoop=1;jettySize=auto;html=1;flowAnimation=1;" parent="1" source="47vPxkn8_tH3v08N_-s_-45" target="47vPxkn8_tH3v08N_-s_-31" edge="1">
          <mxGeometry relative="1" as="geometry">
            <Array as="points">
              <mxPoint x="20" y="731" />
            </Array>
          </mxGeometry>
        </mxCell>
        <mxCell id="47vPxkn8_tH3v08N_-s_-45" value="ActiveFilter = TRUE" style="strokeWidth=1;outlineConnect=0;dashed=0;align=center;fontSize=8;fillColor=#c0f5a9;verticalLabelPosition=bottom;verticalAlign=top;shape=mxgraph.eip.message_filter;rounded=1;html=0;" parent="1" vertex="1">
          <mxGeometry y="681" width="40" height="30" as="geometry" />
        </mxCell>
        <mxCell id="47vPxkn8_tH3v08N_-s_-46" style="edgeStyle=orthogonalEdgeStyle;rounded=0;orthogonalLoop=1;jettySize=auto;html=1;flowAnimation=1;" parent="1" source="47vPxkn8_tH3v08N_-s_-48" target="47vPxkn8_tH3v08N_-s_-49" edge="1">
          <mxGeometry relative="1" as="geometry" />
        </mxCell>
        <mxCell id="47vPxkn8_tH3v08N_-s_-47" style="edgeStyle=orthogonalEdgeStyle;rounded=0;orthogonalLoop=1;jettySize=auto;html=1;" parent="1" source="47vPxkn8_tH3v08N_-s_-48" target="47vPxkn8_tH3v08N_-s_-50" edge="1">
          <mxGeometry relative="1" as="geometry" />
        </mxCell>
        <mxCell id="47vPxkn8_tH3v08N_-s_-48" value="High Rating DB Logger" style="shape=process;whiteSpace=wrap;html=1;backgroundOutline=1;" parent="1" vertex="1">
          <mxGeometry x="80" y="870" width="120" height="40" as="geometry" />
        </mxCell>
        <mxCell id="47vPxkn8_tH3v08N_-s_-49" value="&lt;div&gt;H2&lt;/div&gt;&lt;div&gt;PostgreSQL&lt;/div&gt;Database" style="shape=cylinder3;whiteSpace=wrap;html=1;boundedLbl=1;backgroundOutline=1;size=15;" parent="1" vertex="1">
          <mxGeometry x="300" y="850" width="80" height="80" as="geometry" />
        </mxCell>
        <mxCell id="47vPxkn8_tH3v08N_-s_-50" value="Logger" style="ellipse;whiteSpace=wrap;html=1;" parent="1" vertex="1">
          <mxGeometry x="100" y="950" width="80" height="40" as="geometry" />
        </mxCell>
        <mxCell id="47vPxkn8_tH3v08N_-s_-51" value="Transform&#xa;to JDBC" style="shape=image;verticalLabelPosition=bottom;labelBackgroundColor=default;verticalAlign=top;aspect=fixed;imageAspect=0;image=https://www.enterpriseintegrationpatterns.com/img/MessageTranslatorIcon.gif;" parent="1" vertex="1">
          <mxGeometry x="224" y="920" width="56" height="35.16" as="geometry" />
        </mxCell>
        <mxCell id="47vPxkn8_tH3v08N_-s_-52" value="" style="edgeStyle=orthogonalEdgeStyle;rounded=0;orthogonalLoop=1;jettySize=auto;html=1;flowAnimation=1;" parent="1" source="47vPxkn8_tH3v08N_-s_-19" target="47vPxkn8_tH3v08N_-s_-22" edge="1">
          <mxGeometry relative="1" as="geometry">
            <mxPoint x="-30" y="570" as="sourcePoint" />
            <mxPoint x="-10" y="540" as="targetPoint" />
          </mxGeometry>
        </mxCell>
        <mxCell id="47vPxkn8_tH3v08N_-s_-53" value="" style="edgeStyle=orthogonalEdgeStyle;rounded=0;orthogonalLoop=1;jettySize=auto;html=1;flowAnimation=1;" parent="1" source="47vPxkn8_tH3v08N_-s_-19" target="47vPxkn8_tH3v08N_-s_-54" edge="1">
          <mxGeometry relative="1" as="geometry">
            <Array as="points">
              <mxPoint x="-20" y="570" />
              <mxPoint x="-20" y="890" />
            </Array>
            <mxPoint x="-50" y="580" as="sourcePoint" />
            <mxPoint x="80" y="880" as="targetPoint" />
          </mxGeometry>
        </mxCell>
        <mxCell id="47vPxkn8_tH3v08N_-s_-54" value="RatingFilter &gt;= 5" style="strokeWidth=1;outlineConnect=0;dashed=0;align=center;fontSize=8;fillColor=#c0f5a9;verticalLabelPosition=bottom;verticalAlign=top;shape=mxgraph.eip.message_filter;rounded=1;html=0;" parent="1" vertex="1">
          <mxGeometry y="875" width="40" height="30" as="geometry" />
        </mxCell>
        <mxCell id="47vPxkn8_tH3v08N_-s_-55" value="" style="edgeStyle=orthogonalEdgeStyle;rounded=0;orthogonalLoop=1;jettySize=auto;html=1;flowAnimation=1;exitX=1;exitY=0.5;exitDx=0;exitDy=0;exitPerimeter=0;" parent="1" source="47vPxkn8_tH3v08N_-s_-54" target="47vPxkn8_tH3v08N_-s_-48" edge="1">
          <mxGeometry relative="1" as="geometry">
            <Array as="points">
              <mxPoint x="60" y="890" />
              <mxPoint x="60" y="890" />
            </Array>
            <mxPoint x="-140" y="960" as="sourcePoint" />
            <mxPoint x="-90" y="1260" as="targetPoint" />
          </mxGeometry>
        </mxCell>
        <mxCell id="47vPxkn8_tH3v08N_-s_-56" value="Logger" style="ellipse;whiteSpace=wrap;html=1;" parent="1" vertex="1">
          <mxGeometry x="100" y="790" width="80" height="40" as="geometry" />
        </mxCell>
      </root>
    </mxGraphModel>
  </diagram>
</mxfile>
